<svg xmlns="http://www.w3.org/2000/svg" xmlns:xlink="http://www.w3.org/1999/xlink" width="61" height="61" viewBox="0 0 61 61">
  <defs>
    <filter id="Elipse_3" x="0" y="0" width="61" height="61" filterUnits="userSpaceOnUse">
      <feOffset dy="3" input="SourceAlpha"/>
      <feGaussianBlur stdDeviation="3" result="blur"/>
      <feFlood flood-color="#f2f2f2"/>
      <feComposite operator="in" in2="blur"/>
      <feComposite in="SourceGraphic"/>
    </filter>
  </defs>
  <g id="Grupo_88" data-name="Grupo 88" transform="translate(9 6.154)">
    <g transform="matrix(1, 0, 0, 1, -9, -6.15)" filter="url(#Elipse_3)">
      <circle id="Elipse_3-2" data-name="Elipse 3" cx="21.5" cy="21.5" r="21.5" transform="translate(9 6)" fill="#fff"/>
    </g>
    <g id="icons8-google" transform="translate(12.043 11.18)">
      <path id="Trazado_70" data-name="Trazado 70" d="M23.213,12.026h-.781v-.041H13.7v3.992h5.482A5.832,5.832,0,0,1,13.7,19.969a5.906,5.906,0,0,1-5.82-5.988A5.906,5.906,0,0,1,13.7,7.992a5.7,5.7,0,0,1,3.861,1.517l2.744-2.823A9.512,9.512,0,0,0,13.7,4,9.844,9.844,0,0,0,4,13.981a9.844,9.844,0,0,0,9.7,9.981,9.844,9.844,0,0,0,9.7-9.981A10.329,10.329,0,0,0,23.213,12.026Z" transform="translate(-4 -4)" fill="#ffc107"/>
      <path id="Trazado_71" data-name="Trazado 71" d="M6.306,9.335l3.187,2.4a5.822,5.822,0,0,1,5.4-3.748,5.7,5.7,0,0,1,3.861,1.517l2.744-2.823A9.512,9.512,0,0,0,14.888,4,9.665,9.665,0,0,0,6.306,9.335Z" transform="translate(-5.188 -4)" fill="#ff3d00"/>
      <path id="Trazado_72" data-name="Trazado 72" d="M14.831,36.012a9.507,9.507,0,0,0,6.5-2.591l-3-2.614a5.672,5.672,0,0,1-3.5,1.213,5.83,5.83,0,0,1-5.473-3.965L6.2,30.562A9.668,9.668,0,0,0,14.831,36.012Z" transform="translate(-5.13 -16.05)" fill="#4caf50"/>
      <path id="Trazado_73" data-name="Trazado 73" d="M33.512,20.041h-.781V20H24v3.992h5.482a6,6,0,0,1-1.982,2.78h0l3,2.614A9.742,9.742,0,0,0,33.7,22,10.328,10.328,0,0,0,33.512,20.041Z" transform="translate(-14.299 -12.016)" fill="#1976d2"/>
    </g>
  </g>
</svg>
