<svg xmlns="http://www.w3.org/2000/svg" width="224" height="79.566" viewBox="0 0 224 79.566"><defs><style>.a,.b,.c{fill:#fff;}.a{font-size:53px;}.a,.b{font-family:Roboto-Black, Roboto Black;font-weight:800;}.b{font-size:30px;}.d{fill:#fd9697;}</style></defs><g transform="translate(-109.41 -72.127)"><text class="a" transform="translate(109.41 121.127)"><tspan x="0" y="0">Pet</tspan></text><text class="a" transform="translate(251.41 121.127)"><tspan x="0" y="0">Pet</tspan></text><text class="b" transform="translate(205.41 102.127)"><tspan x="0" y="0">ur</tspan></text><g transform="translate(178.645 112.192)"><path class="c" d="M124.795,238.036A19.374,19.374,0,0,1,92.065,252.1c9.113-4.625,14.988-23.617,14.988-23.617s-16.568-11.643-37.909,0c0,0,5.907,19.092,15.061,23.65a19.374,19.374,0,0,1-32.694-14.1H46.14a24.749,24.749,0,0,0,42.014,17.758,24.749,24.749,0,0,0,42.014-17.758Z" transform="translate(-46.14 -223.31)"/><path class="d" d="M69.618,230.134a26.624,26.624,0,0,1,21.34,0s-6.333,13.9-10.876,13.9S69.618,230.134,69.618,230.134Z" transform="translate(-38.116 -221.73)"/></g></g></svg>